<svg xmlns="http://www.w3.org/2000/svg" viewBox="0 0 1600 480" role="img"
  aria-labelledby="title desc">
  <title id="title">Connected persona illustration</title>
  <desc id="desc">An abstract network of silhouettes, nodes, and memory threads.</desc>
  <defs>
    <linearGradient id="bg" x1="0%" y1="0%" x2="100%" y2="100%">
      <stop offset="0%" stop-color="#f6efe2" />
      <stop offset="55%" stop-color="#d7e6f6" />
      <stop offset="100%" stop-color="#f4d8d3" />
    </linearGradient>
    <linearGradient id="thread" x1="0%" y1="0%" x2="100%" y2="0%">
      <stop offset="0%" stop-color="#1d3557" stop-opacity="0.15" />
      <stop offset="50%" stop-color="#457b9d" stop-opacity="0.7" />
      <stop offset="100%" stop-color="#e76f51" stop-opacity="0.25" />
    </linearGradient>
    <filter id="blur" x="-20%" y="-20%" width="140%" height="140%">
      <feGaussianBlur stdDeviation="24" />
    </filter>
  </defs>

  <rect width="1600" height="480" fill="url(#bg)" rx="36" />

  <g opacity="0.6" filter="url(#blur)">
    <circle cx="230" cy="130" r="85" fill="#f4a261" />
    <circle cx="1380" cy="130" r="95" fill="#a8dadc" />
    <circle cx="1220" cy="360" r="90" fill="#f28482" />
    <circle cx="410" cy="350" r="100" fill="#bde0fe" />
  </g>

  <g fill="none" stroke="url(#thread)" stroke-width="6" stroke-linecap="round">
    <path d="M120 240 C 260 110, 380 120, 520 210 S 820 360, 980 250 S 1280 120, 1480 220" />
    <path d="M170 300 C 330 390, 520 390, 680 290 S 1030 110, 1400 300" />
    <path d="M210 170 C 350 260, 610 260, 760 180 S 1120 80, 1350 190" />
  </g>

  <g fill="#1d3557">
    <circle cx="230" cy="220" r="18" />
    <circle cx="430" cy="180" r="14" />
    <circle cx="610" cy="250" r="16" />
    <circle cx="820" cy="210" r="12" />
    <circle cx="1010" cy="260" r="18" />
    <circle cx="1240" cy="180" r="14" />
    <circle cx="1380" cy="240" r="16" />
  </g>

  <g fill="#ffffff" opacity="0.95">
    <path d="M250 320c0-37 28-67 62-67s62 30 62 67v46H250v-46z" />
    <circle cx="312" cy="220" r="46" />

    <path d="M650 338c0-31 24-56 53-56s53 25 53 56v38H650v-38z" />
    <circle cx="703" cy="253" r="38" />

    <path d="M1060 326c0-35 27-63 59-63s59 28 59 63v43h-118v-43z" />
    <circle cx="1119" cy="229" r="43" />
  </g>

  <g fill="#457b9d" opacity="0.9">
    <circle cx="500" cy="114" r="8" />
    <circle cx="551" cy="132" r="8" />
    <circle cx="602" cy="114" r="8" />
    <circle cx="653" cy="132" r="8" />
    <circle cx="956" cy="132" r="8" />
    <circle cx="1007" cy="114" r="8" />
    <circle cx="1058" cy="132" r="8" />
    <circle cx="1109" cy="114" r="8" />
  </g>
</svg>